<?xml version="1.0" encoding="utf-8"?>
<!-- Generator: Adobe Illustrator 25.4.1, SVG Export Plug-In . SVG Version: 6.00 Build 0)  -->
<svg version="1.1" id="Layer_1" xmlns="http://www.w3.org/2000/svg" xmlns:xlink="http://www.w3.org/1999/xlink" x="0px" y="0px"
	 viewBox="0 0 665.63 74.21" style="enable-background:new 0 0 665.63 74.21;" xml:space="preserve">
<style type="text/css">
	.st0{fill:#402913;}
</style>
<path id="Path_3" class="st0" d="M663.55,15.59c-3.43-3.1-2.1-6.06-2.1-6.06c3.44-6.35-3.98-9.54-4.01-9.53
	c-7.55,4.29-3.82,9.53-3.82,9.53c1.32,2.93-0.3,4.96-1.68,6.06h-4.22c-3.43-3.1-2.1-6.06-2.1-6.06c3.44-6.35-3.98-9.54-4.01-9.53
	c-7.55,4.29-3.83,9.53-3.83,9.53c1.32,2.93-0.29,4.96-1.68,6.06h-4.22c-3.43-3.1-2.1-6.06-2.1-6.06c3.44-6.35-3.98-9.54-4.02-9.53
	c-7.55,4.29-3.82,9.53-3.82,9.53c1.32,2.93-0.3,4.96-1.68,6.06h-4.22c-3.42-3.1-2.1-6.06-2.1-6.06c3.44-6.35-3.98-9.54-4.01-9.53
	c-7.55,4.29-3.82,9.53-3.82,9.53c1.32,2.93-0.3,4.96-1.68,6.06h-4.22c-3.43-3.1-2.1-6.06-2.1-6.06c3.44-6.35-3.98-9.54-4.02-9.53
	c-7.55,4.29-3.82,9.53-3.82,9.53c1.32,2.93-0.29,4.96-1.68,6.06h-4.22c-3.42-3.1-2.1-6.06-2.1-6.06c3.44-6.35-3.98-9.54-4.02-9.53
	c-7.55,4.29-3.82,9.53-3.82,9.53c1.32,2.93-0.3,4.96-1.68,6.06h-4.22c-3.43-3.1-2.1-6.06-2.1-6.06c3.44-6.35-3.98-9.54-4.02-9.53
	c-7.55,4.29-3.82,9.53-3.82,9.53c1.32,2.93-0.29,4.96-1.68,6.06h-4.22c-3.43-3.1-2.1-6.06-2.1-6.06c3.44-6.35-3.98-9.54-4.02-9.53
	c-7.55,4.29-3.82,9.53-3.82,9.53c1.32,2.93-0.29,4.96-1.68,6.06h-4.22c-3.43-3.1-2.1-6.06-2.1-6.06c3.44-6.35-3.98-9.54-4.01-9.53
	c-7.55,4.29-3.82,9.53-3.82,9.53c1.32,2.93-0.3,4.96-1.68,6.06h-4.22c-3.43-3.1-2.1-6.06-2.1-6.06c3.44-6.35-3.98-9.54-4.01-9.53
	c-7.55,4.29-3.82,9.53-3.82,9.53c1.32,2.93-0.29,4.96-1.68,6.06h-4.23c-3.43-3.1-2.11-6.06-2.11-6.06c3.44-6.35-3.98-9.54-4.02-9.53
	c-7.55,4.29-3.82,9.53-3.82,9.53c1.32,2.93-0.3,4.96-1.68,6.06h-4.22c-3.42-3.1-2.1-6.06-2.1-6.06c3.44-6.35-3.98-9.54-4.01-9.53
	c-7.55,4.29-3.82,9.53-3.82,9.53c1.32,2.93-0.3,4.96-1.68,6.06h-4.22c-3.43-3.1-2.11-6.06-2.11-6.06c3.44-6.35-3.98-9.54-4.02-9.53
	c-7.55,4.29-3.82,9.53-3.82,9.53c1.32,2.93-0.3,4.96-1.68,6.06h-4.22c-3.43-3.1-2.11-6.06-2.11-6.06c3.44-6.35-3.98-9.54-4.02-9.53
	c-7.55,4.29-3.82,9.53-3.82,9.53c1.32,2.93-0.3,4.96-1.68,6.06h-4.22c-3.43-3.1-2.1-6.06-2.1-6.06c3.44-6.35-3.98-9.54-4.02-9.53
	c-7.55,4.29-3.82,9.53-3.82,9.53c1.32,2.93-0.3,4.96-1.68,6.06h-4.22c-3.43-3.1-2.1-6.06-2.1-6.06c3.44-6.35-3.98-9.54-4.02-9.53
	c-7.55,4.29-3.82,9.53-3.82,9.53c1.32,2.93-0.3,4.96-1.68,6.06h-4.22c-3.43-3.1-2.1-6.06-2.1-6.06c3.44-6.35-3.98-9.54-4.02-9.53
	c-7.55,4.29-3.82,9.53-3.82,9.53c1.32,2.93-0.3,4.96-1.68,6.06h-4.22c-3.43-3.1-2.11-6.06-2.11-6.06c3.44-6.35-3.98-9.54-4.01-9.53
	c-7.55,4.29-3.82,9.53-3.82,9.53c1.32,2.93-0.3,4.96-1.68,6.06h-4.22c-3.43-3.1-2.11-6.06-2.11-6.06c3.44-6.35-3.98-9.54-4.02-9.53
	c-7.55,4.29-3.82,9.53-3.82,9.53c1.32,2.93-0.3,4.96-1.68,6.06h-4.22c-3.43-3.1-2.11-6.06-2.11-6.06c3.44-6.35-3.98-9.54-4.01-9.53
	c-7.55,4.29-3.82,9.53-3.82,9.53c1.32,2.93-0.3,4.96-1.68,6.06h-4.22c-3.43-3.1-2.11-6.06-2.11-6.06c3.44-6.35-3.98-9.54-4.02-9.53
	c-7.55,4.29-3.82,9.53-3.82,9.53c1.32,2.93-0.3,4.96-1.68,6.06h-4.23c-3.43-3.1-2.11-6.06-2.11-6.06c3.44-6.35-3.98-9.54-4.02-9.53
	c-7.55,4.29-3.82,9.53-3.82,9.53c1.32,2.93-0.3,4.96-1.68,6.06h-4.22c-3.42-3.1-2.1-6.06-2.1-6.06c3.44-6.35-3.98-9.54-4.02-9.53
	C301.27,4.29,305,9.53,305,9.53c1.32,2.93-0.3,4.96-1.68,6.06h-4.23c-3.43-3.1-2.1-6.06-2.1-6.06c3.44-6.35-3.98-9.54-4.02-9.53
	c-7.55,4.29-3.82,9.53-3.82,9.53c1.32,2.93-0.3,4.96-1.68,6.06h-4.22c-3.43-3.1-2.1-6.06-2.1-6.06c3.44-6.35-3.98-9.54-4.02-9.53
	c-7.55,4.29-3.82,9.53-3.82,9.53c1.32,2.93-0.3,4.96-1.68,6.06h-4.22c-3.43-3.1-2.11-6.06-2.11-6.06c3.44-6.35-3.98-9.54-4.01-9.53
	c-7.55,4.29-3.82,9.53-3.82,9.53c1.32,2.93-0.3,4.96-1.68,6.06h-4.22c-3.43-3.1-2.1-6.06-2.1-6.06c3.44-6.35-3.98-9.54-4.01-9.53
	c-7.55,4.29-3.82,9.53-3.82,9.53c1.32,2.93-0.29,4.96-1.68,6.06h-4.22c-3.43-3.1-2.1-6.06-2.1-6.06c3.44-6.35-3.98-9.54-4.01-9.53
	c-7.55,4.29-3.82,9.53-3.82,9.53c1.32,2.93-0.3,4.96-1.68,6.06h-4.22c-3.43-3.1-2.1-6.06-2.1-6.06c3.44-6.35-3.98-9.54-4.01-9.53
	c-7.55,4.29-3.82,9.53-3.82,9.53c1.32,2.93-0.3,4.96-1.68,6.06h-4.22c-3.43-3.1-2.1-6.06-2.1-6.06c3.44-6.35-3.98-9.54-4.02-9.53
	c-7.55,4.29-3.82,9.53-3.82,9.53c1.32,2.93-0.29,4.96-1.68,6.06h-4.22c-3.43-3.1-2.1-6.06-2.1-6.06c3.44-6.35-3.98-9.54-4.02-9.53
	c-7.55,4.29-3.82,9.53-3.82,9.53c1.32,2.93-0.29,4.96-1.68,6.06h-4.22c-3.43-3.1-2.1-6.06-2.1-6.06c3.44-6.35-3.98-9.54-4.01-9.53
	c-7.55,4.29-3.82,9.53-3.82,9.53c1.32,2.93-0.29,4.96-1.68,6.06h-4.22c-3.43-3.1-2.1-6.06-2.1-6.06c3.44-6.35-3.98-9.54-4.02-9.53
	c-7.55,4.29-3.82,9.53-3.82,9.53c1.32,2.93-0.29,4.96-1.68,6.06h-4.22c-3.43-3.1-2.1-6.06-2.1-6.06c3.44-6.35-3.98-9.54-4.01-9.53
	c-7.55,4.29-3.82,9.53-3.82,9.53c1.32,2.93-0.3,4.96-1.68,6.06h-4.23c-3.43-3.1-2.11-6.06-2.11-6.06c3.44-6.35-3.98-9.54-4.01-9.53
	c-7.55,4.29-3.82,9.53-3.82,9.53c1.32,2.93-0.3,4.96-1.68,6.06h-4.22c-3.43-3.1-2.11-6.06-2.11-6.06c3.44-6.35-3.98-9.54-4.02-9.53
	C95.27,4.29,99,9.53,99,9.53c1.32,2.93-0.29,4.96-1.68,6.06H93.1C89.68,12.49,91,9.53,91,9.53c3.44-6.35-3.98-9.54-4.01-9.53
	c-7.55,4.29-3.82,9.53-3.82,9.53c1.32,2.93-0.3,4.96-1.68,6.06h-4.22c-3.43-3.1-2.11-6.06-2.11-6.06c3.44-6.35-3.98-9.54-4.02-9.53
	c-7.55,4.29-3.82,9.53-3.82,9.53c1.32,2.93-0.29,4.96-1.68,6.06h-4.22c-3.43-3.1-2.1-6.06-2.1-6.06c3.44-6.35-3.98-9.54-4.02-9.53
	c-7.55,4.29-3.82,9.53-3.82,9.53c1.32,2.93-0.29,4.96-1.68,6.06h-4.22c-3.43-3.1-2.1-6.06-2.1-6.06c3.44-6.35-3.98-9.54-4.02-9.53
	c-7.55,4.29-3.82,9.53-3.82,9.53c1.32,2.93-0.29,4.96-1.68,6.06h-4.22c-3.43-3.1-2.1-6.06-2.1-6.06c3.44-6.35-3.98-9.54-4.02-9.53
	c-7.55,4.29-3.82,9.53-3.82,9.53c1.32,2.93-0.3,4.96-1.68,6.06h-4.22c-3.43-3.1-2.1-6.06-2.1-6.06C15.22,3.18,7.8-0.01,7.76,0
	C0.21,4.29,3.94,9.53,3.94,9.53c1.32,2.93-0.3,4.96-1.68,6.06H0v58.62h665.63V15.59H663.55z"/>
</svg>
